PERFORMER "Bob Dylan"
TITLE "Street Legal"
FILE "Side A.wv" WAVE
  TRACK 01 AUDIO
    TITLE "Changing of the Guards"
    INDEX 01 00:00:00
  TRACK 02 AUDIO
    TITLE "New Pony"
    INDEX 01 06:35:00
  TRACK 03 AUDIO
    TITLE "No Time to Think"
    INDEX 01 11:03:00
  TRACK 04 AUDIO
    TITLE "Baby, Stop Crying"
    INDEX 01 19:23:50
FILE "Side B.wv" WAVE
  TRACK 05 AUDIO
    TITLE "Is Your Love in Vain?"
    INDEX 01 00:00:00
  TRACK 06 AUDIO
    TITLE "Señor (Tales of Yankee Power)"
    INDEX 01 04:31:00
  TRACK 07 AUDIO
    TITLE "True Love Tends to Forget"
    INDEX 01 10:12:00
  TRACK 08 AUDIO
    TITLE "We Better Talk This Over"
    INDEX 01 14:27:00
  TRACK 09 AUDIO
    TITLE "Where Are You Tonight? (Journey Through Dark Heat)"
    INDEX 01 18:32:50

  